<?xml version='1.0' encoding='utf-8'?>
<svg xmlns="http://www.w3.org/2000/svg" width="1024" height="1024" viewBox="0 0 1024 1024"><rect x="0" y="0" width="1024" height="1024" rx="512" ry="512" fill="#141517" /><svg width="1024" height="1024" viewBox="0 0 1024 1024" fill="none" x="0" y="0" preserveAspectRatio="xMidYMid meet">
  <title>Lissajous 1:3, phase 135°, rotated 45°</title>
  <desc>x = sin(1·t + 135°), y = sin(3·t), stroke-width=60, rotate(55 512.0 512.0)</desc>
  <g transform="translate(512.0 512.0) scale(0.55) translate(-512.0 -512.0) rotate(55 512.0 512.0)">
    <path d="M 851.411 512.000 L 850.878 509.737 L 850.343 507.475 L 849.808 505.213 L 849.271 502.950 L 848.734 500.688 L 848.197 498.427 L 847.658 496.165 L 847.118 493.904 L 846.578 491.643 L 846.037 489.383 L 845.495 487.124 L 844.952 484.864 L 844.408 482.606 L 843.864 480.348 L 843.319 478.091 L 842.772 475.834 L 842.226 473.578 L 841.678 471.324 L 841.129 469.070 L 840.580 466.817 L 840.030 464.565 L 839.479 462.314 L 838.927 460.064 L 838.374 457.815 L 837.821 455.568 L 837.267 453.322 L 836.712 451.077 L 836.156 448.833 L 835.599 446.591 L 835.042 444.351 L 834.484 442.111 L 833.925 439.874 L 833.365 437.638 L 832.804 435.403 L 832.243 433.171 L 831.681 430.940 L 831.118 428.711 L 830.554 426.484 L 829.989 424.258 L 829.424 422.035 L 828.858 419.813 L 828.291 417.594 L 827.723 415.377 L 827.155 413.162 L 826.586 410.949 L 826.016 408.738 L 825.445 406.530 L 824.873 404.324 L 824.301 402.120 L 823.728 399.919 L 823.154 397.720 L 822.579 395.524 L 822.004 393.330 L 821.428 391.139 L 820.851 388.951 L 820.273 386.765 L 819.695 384.583 L 819.116 382.403 L 818.536 380.226 L 817.955 378.052 L 817.373 375.881 L 816.791 373.712 L 816.208 371.547 L 815.624 369.385 L 815.040 367.227 L 814.455 365.071 L 813.869 362.919 L 813.282 360.770 L 812.694 358.624 L 812.106 356.482 L 811.517 354.343 L 810.928 352.208 L 810.337 350.077 L 809.746 347.948 L 809.154 345.824 L 808.561 343.703 L 807.968 341.586 L 807.374 339.473 L 806.779 337.364 L 806.183 335.258 L 805.587 333.157 L 804.990 331.059 L 804.392 328.965 L 803.794 326.876 L 803.195 324.790 L 802.595 322.709 L 801.994 320.632 L 801.393 318.559 L 800.791 316.491 L 800.188 314.427 L 799.585 312.367 L 798.980 310.312 L 798.376 308.261 L 797.770 306.214 L 797.164 304.173 L 796.557 302.136 L 795.949 300.103 L 795.341 298.075 L 794.731 296.052 L 794.122 294.034 L 793.511 292.021 L 792.900 290.012 L 792.288 288.009 L 791.675 286.010 L 791.062 284.017 L 790.448 282.028 L 789.834 280.045 L 789.218 278.067 L 788.602 276.094 L 787.986 274.126 L 787.368 272.163 L 786.750 270.206 L 786.131 268.254 L 785.512 266.308 L 784.892 264.367 L 784.271 262.432 L 783.650 260.502 L 783.028 258.577 L 782.405 256.659 L 781.781 254.746 L 781.157 252.839 L 780.532 250.937 L 779.907 249.041 L 779.281 247.151 L 778.654 245.268 L 778.027 243.389 L 777.399 241.517 L 776.770 239.651 L 776.141 237.791 L 775.510 235.937 L 774.880 234.090 L 774.248 232.248 L 773.616 230.412 L 772.984 228.583 L 772.351 226.760 L 771.717 224.944 L 771.082 223.134 L 770.447 221.330 L 769.811 219.533 L 769.175 217.742 L 768.537 215.958 L 767.900 214.180 L 767.261 212.409 L 766.622 210.645 L 765.983 208.887 L 765.342 207.136 L 764.702 205.392 L 764.060 203.655 L 763.418 201.924 L 762.775 200.200 L 762.132 198.484 L 761.488 196.774 L 760.843 195.071 L 760.198 193.376 L 759.552 191.687 L 758.906 190.005 L 758.259 188.331 L 757.611 186.664 L 756.963 185.004 L 756.314 183.351 L 755.664 181.706 L 755.014 180.068 L 754.364 178.437 L 753.712 176.814 L 753.061 175.198 L 752.408 173.590 L 751.755 171.989 L 751.101 170.396 L 750.447 168.810 L 749.792 167.232 L 749.137 165.662 L 748.481 164.099 L 747.824 162.545 L 747.167 160.997 L 746.509 159.458 L 745.851 157.926 L 745.192 156.403 L 744.533 154.887 L 743.873 153.379 L 743.212 151.879 L 742.551 150.388 L 741.889 148.904 L 741.227 147.428 L 740.564 145.960 L 739.900 144.501 L 739.236 143.049 L 738.572 141.606 L 737.907 140.171 L 737.241 138.745 L 736.575 137.326 L 735.908 135.916 L 735.240 134.514 L 734.573 133.121 L 733.904 131.736 L 733.235 130.360 L 732.566 128.992 L 731.895 127.632 L 731.225 126.281 L 730.554 124.939 L 729.882 123.605 L 729.210 122.280 L 728.537 120.964 L 727.863 119.656 L 727.190 118.357 L 726.515 117.067 L 725.840 115.785 L 725.165 114.512 L 724.489 113.248 L 723.812 111.993 L 723.135 110.747 L 722.458 109.510 L 721.780 108.282 L 721.101 107.062 L 720.422 105.852 L 719.742 104.651 L 719.062 103.458 L 718.382 102.275 L 717.700 101.101 L 717.019 99.936 L 716.337 98.780 L 715.654 97.634 L 714.971 96.496 L 714.287 95.368 L 713.603 94.249 L 712.918 93.140 L 712.233 92.039 L 711.547 90.948 L 710.861 89.867 L 710.175 88.795 L 709.487 87.732 L 708.800 86.678 L 708.112 85.634 L 707.423 84.600 L 706.734 83.575 L 706.044 82.559 L 705.354 81.553 L 704.664 80.557 L 703.973 79.570 L 703.281 78.593 L 702.589 77.625 L 701.897 76.667 L 701.204 75.719 L 700.511 74.781 L 699.817 73.852 L 699.123 72.933 L 698.428 72.023 L 697.733 71.124 L 697.037 70.234 L 696.341 69.354 L 695.644 68.484 L 694.947 67.623 L 694.250 66.773 L 693.552 65.933 L 692.854 65.102 L 692.155 64.281 L 691.456 63.471 L 690.756 62.670 L 690.056 61.879 L 689.355 61.098 L 688.654 60.327 L 687.953 59.567 L 687.251 58.816 L 686.549 58.075 L 685.846 57.345 L 685.143 56.624 L 684.439 55.914 L 683.735 55.214 L 683.030 54.524 L 682.326 53.844 L 681.620 53.174 L 680.915 52.515 L 680.208 51.866 L 679.502 51.227 L 678.795 50.598 L 678.088 49.979 L 677.380 49.371 L 676.672 48.773 L 675.963 48.185 L 675.254 47.608 L 674.545 47.041 L 673.835 46.484 L 673.125 45.938 L 672.414 45.401 L 671.703 44.876 L 670.991 44.360 L 670.280 43.855 L 669.568 43.361 L 668.855 42.877 L 668.142 42.403 L 667.429 41.940 L 666.715 41.487 L 666.001 41.045 L 665.286 40.613 L 664.571 40.191 L 663.856 39.780 L 663.141 39.380 L 662.425 38.990 L 661.708 38.610 L 660.991 38.241 L 660.274 37.883 L 659.557 37.535 L 658.839 37.198 L 658.121 36.871 L 657.402 36.555 L 656.683 36.249 L 655.964 35.954 L 655.244 35.670 L 654.525 35.396 L 653.804 35.132 L 653.083 34.880 L 652.362 34.637 L 651.641 34.406 L 650.919 34.185 L 650.197 33.975 L 649.475 33.775 L 648.752 33.586 L 648.029 33.407 L 647.306 33.240 L 646.582 33.082 L 645.858 32.936 L 645.133 32.800 L 644.409 32.675 L 643.684 32.560 L 642.958 32.456 L 642.232 32.363 L 641.506 32.280 L 640.780 32.208 L 640.053 32.147 L 639.326 32.096 L 638.599 32.056 L 637.871 32.027 L 637.143 32.008 L 636.415 32.000 L 635.687 32.003 L 634.958 32.016 L 634.229 32.040 L 633.499 32.075 L 632.769 32.120 L 632.039 32.176 L 631.309 32.243 L 630.578 32.320 L 629.847 32.408 L 629.116 32.507 L 628.385 32.616 L 627.653 32.736 L 626.921 32.867 L 626.188 33.008 L 625.456 33.160 L 624.723 33.322 L 623.990 33.495 L 623.256 33.679 L 622.522 33.873 L 621.788 34.078 L 621.054 34.294 L 620.319 34.520 L 619.585 34.757 L 618.849 35.005 L 618.114 35.263 L 617.378 35.531 L 616.643 35.811 L 615.906 36.100 L 615.170 36.401 L 614.433 36.712 L 613.696 37.033 L 612.959 37.365 L 612.222 37.708 L 611.484 38.061 L 610.746 38.425 L 610.008 38.799 L 609.270 39.184 L 608.531 39.579 L 607.792 39.984 L 607.053 40.401 L 606.314 40.827 L 605.574 41.264 L 604.834 41.712 L 604.094 42.170 L 603.354 42.639 L 602.613 43.118 L 601.873 43.607 L 601.132 44.107 L 600.391 44.617 L 599.649 45.137 L 598.908 45.668 L 598.166 46.209 L 597.424 46.761 L 596.681 47.323 L 595.939 47.895 L 595.196 48.478 L 594.454 49.071 L 593.710 49.674 L 592.967 50.287 L 592.224 50.911 L 591.480 51.545 L 590.736 52.189 L 589.992 52.843 L 589.248 53.508 L 588.503 54.183 L 587.759 54.868 L 587.014 55.563 L 586.269 56.268 L 585.524 56.983 L 584.779 57.709 L 584.033 58.444 L 583.287 59.190 L 582.541 59.946 L 581.795 60.712 L 581.049 61.487 L 580.303 62.273 L 579.556 63.069 L 578.809 63.875 L 578.062 64.690 L 577.315 65.516 L 576.568 66.352 L 575.821 67.197 L 575.073 68.052 L 574.325 68.918 L 573.578 69.793 L 572.830 70.677 L 572.081 71.572 L 571.333 72.477 L 570.585 73.391 L 569.836 74.315 L 569.087 75.249 L 568.338 76.192 L 567.589 77.145 L 566.840 78.108 L 566.091 79.080 L 565.341 80.062 L 564.592 81.054 L 563.842 82.055 L 563.092 83.066 L 562.342 84.086 L 561.592 85.116 L 560.842 86.155 L 560.092 87.204 L 559.341 88.262 L 558.591 89.329 L 557.840 90.406 L 557.089 91.493 L 556.339 92.588 L 555.588 93.693 L 554.836 94.808 L 554.085 95.931 L 553.334 97.064 L 552.582 98.206 L 551.831 99.357 L 551.079 100.518 L 550.328 101.687 L 549.576 102.866 L 548.824 104.053 L 548.072 105.250 L 547.320 106.456 L 546.568 107.671 L 545.815 108.895 L 545.063 110.128 L 544.311 111.369 L 543.558 112.620 L 542.806 113.879 L 542.053 115.148 L 541.300 116.425 L 540.547 117.711 L 539.794 119.005 L 539.042 120.309 L 538.289 121.621 L 537.535 122.942 L 536.782 124.271 L 536.029 125.609 L 535.276 126.956 L 534.523 128.311 L 533.769 129.675 L 533.016 131.047 L 532.262 132.428 L 531.509 133.817 L 530.755 135.214 L 530.002 136.620 L 529.248 138.034 L 528.494 139.457 L 527.740 140.888 L 526.987 142.327 L 526.233 143.774 L 525.479 145.229 L 524.725 146.693 L 523.971 148.165 L 523.217 149.645 L 522.463 151.132 L 521.709 152.628 L 520.955 154.132 L 520.201 155.644 L 519.447 157.164 L 518.693 158.691 L 517.939 160.227 L 517.185 161.770 L 516.431 163.321 L 515.677 164.880 L 514.922 166.446 L 514.168 168.021 L 513.414 169.602 L 512.660 171.192 L 511.906 172.789 L 511.152 174.393 L 510.397 176.005 L 509.643 177.625 L 508.889 179.252 L 508.135 180.886 L 507.381 182.528 L 506.627 184.177 L 505.873 185.833 L 505.118 187.497 L 504.364 189.167 L 503.610 190.845 L 502.856 192.530 L 502.102 194.223 L 501.348 195.922 L 500.594 197.628 L 499.840 199.341 L 499.086 201.061 L 498.333 202.788 L 497.579 204.522 L 496.825 206.263 L 496.071 208.011 L 495.317 209.765 L 494.564 211.526 L 493.810 213.294 L 493.056 215.068 L 492.303 216.849 L 491.549 218.637 L 490.796 220.431 L 490.042 222.231 L 489.289 224.038 L 488.536 225.851 L 487.783 227.671 L 487.029 229.497 L 486.276 231.329 L 485.523 233.168 L 484.770 235.013 L 484.017 236.864 L 483.264 238.721 L 482.512 240.584 L 481.759 242.453 L 481.006 244.328 L 480.254 246.209 L 479.501 248.096 L 478.749 249.988 L 477.997 251.887 L 477.244 253.791 L 476.492 255.702 L 475.740 257.617 L 474.988 259.539 L 474.236 261.466 L 473.484 263.399 L 472.733 265.337 L 471.981 267.280 L 471.230 269.230 L 470.478 271.184 L 469.727 273.144 L 468.976 275.109 L 468.225 277.079 L 467.474 279.055 L 466.723 281.036 L 465.972 283.022 L 465.222 285.013 L 464.471 287.009 L 463.721 289.010 L 462.970 291.016 L 462.220 293.027 L 461.470 295.043 L 460.720 297.063 L 459.970 299.089 L 459.221 301.119 L 458.471 303.154 L 457.722 305.193 L 456.973 307.237 L 456.223 309.286 L 455.474 311.339 L 454.726 313.396 L 453.977 315.458 L 453.228 317.525 L 452.480 319.595 L 451.732 321.670 L 450.983 323.749 L 450.235 325.833 L 449.488 327.920 L 448.740 330.012 L 447.992 332.107 L 447.245 334.207 L 446.498 336.310 L 445.751 338.418 L 445.004 340.529 L 444.257 342.644 L 443.511 344.763 L 442.764 346.886 L 442.018 349.012 L 441.272 351.142 L 440.526 353.275 L 439.781 355.412 L 439.035 357.553 L 438.290 359.697 L 437.545 361.844 L 436.800 363.995 L 436.055 366.149 L 435.310 368.306 L 434.566 370.466 L 433.822 372.630 L 433.078 374.796 L 432.334 376.966 L 431.590 379.138 L 430.847 381.314 L 430.104 383.492 L 429.361 385.674 L 428.618 387.858 L 427.875 390.045 L 427.133 392.234 L 426.391 394.427 L 425.649 396.622 L 424.907 398.819 L 424.165 401.019 L 423.424 403.221 L 422.683 405.426 L 421.942 407.634 L 421.201 409.843 L 420.461 412.055 L 419.721 414.269 L 418.981 416.485 L 418.241 418.703 L 417.502 420.924 L 416.762 423.146 L 416.023 425.371 L 415.284 427.597 L 414.546 429.825 L 413.807 432.055 L 413.069 434.287 L 412.331 436.520 L 411.594 438.756 L 410.857 440.992 L 410.119 443.231 L 409.383 445.471 L 408.646 447.712 L 407.910 449.955 L 407.173 452.199 L 406.438 454.445 L 405.702 456.692 L 404.967 458.940 L 404.232 461.189 L 403.497 463.439 L 402.762 465.691 L 402.028 467.943 L 401.294 470.197 L 400.560 472.451 L 399.827 474.706 L 399.094 476.962 L 398.361 479.219 L 397.628 481.477 L 396.896 483.735 L 396.164 485.994 L 395.432 488.253 L 394.701 490.513 L 393.970 492.774 L 393.239 495.035 L 392.508 497.296 L 391.778 499.558 L 391.048 501.819 L 390.318 504.082 L 389.589 506.344 L 388.860 508.606 L 388.131 510.869 L 387.403 513.131 L 386.674 515.394 L 385.947 517.656 L 385.219 519.918 L 384.492 522.181 L 383.765 524.442 L 383.038 526.704 L 382.312 528.965 L 381.586 531.226 L 380.860 533.487 L 380.135 535.747 L 379.410 538.006 L 378.685 540.265 L 377.961 542.523 L 377.237 544.781 L 376.513 547.038 L 375.790 549.294 L 375.067 551.549 L 374.344 553.803 L 373.622 556.057 L 372.900 558.309 L 372.179 560.561 L 371.457 562.811 L 370.736 565.060 L 370.016 567.308 L 369.295 569.555 L 368.576 571.801 L 367.856 574.045 L 367.137 576.288 L 366.418 578.529 L 365.700 580.769 L 364.981 583.008 L 364.264 585.244 L 363.546 587.480 L 362.829 589.713 L 362.113 591.945 L 361.396 594.175 L 360.680 596.403 L 359.965 598.629 L 359.250 600.854 L 358.535 603.076 L 357.821 605.297 L 357.107 607.515 L 356.393 609.731 L 355.680 611.945 L 354.967 614.157 L 354.254 616.366 L 353.542 618.574 L 352.831 620.779 L 352.119 622.981 L 351.408 625.181 L 350.698 627.378 L 349.988 629.573 L 349.278 631.766 L 348.569 633.955 L 347.860 636.142 L 347.151 638.326 L 346.443 640.508 L 345.736 642.686 L 345.028 644.862 L 344.321 647.034 L 343.615 649.204 L 342.909 651.370 L 342.203 653.534 L 341.498 655.694 L 340.793 657.851 L 340.089 660.005 L 339.385 662.156 L 338.682 664.303 L 337.978 666.447 L 337.276 668.588 L 336.574 670.725 L 335.872 672.858 L 335.170 674.988 L 334.470 677.114 L 333.769 679.237 L 333.069 681.356 L 332.369 683.471 L 331.670 685.582 L 330.972 687.690 L 330.273 689.793 L 329.576 691.893 L 328.878 693.988 L 328.181 696.080 L 327.485 698.167 L 326.789 700.251 L 326.093 702.330 L 325.398 704.405 L 324.704 706.475 L 324.009 708.542 L 323.316 710.604 L 322.623 712.661 L 321.930 714.714 L 321.238 716.763 L 320.546 718.807 L 319.854 720.846 L 319.163 722.881 L 318.473 724.911 L 317.783 726.937 L 317.094 728.957 L 316.405 730.973 L 315.716 732.984 L 315.028 734.990 L 314.341 736.991 L 313.654 738.987 L 312.967 740.978 L 312.281 742.964 L 311.596 744.945 L 310.911 746.921 L 310.226 748.891 L 309.542 750.856 L 308.858 752.816 L 308.175 754.770 L 307.493 756.720 L 306.811 758.663 L 306.129 760.601 L 305.448 762.534 L 304.768 764.461 L 304.088 766.383 L 303.408 768.298 L 302.729 770.209 L 302.051 772.113 L 301.373 774.012 L 300.695 775.904 L 300.019 777.791 L 299.342 779.672 L 298.666 781.547 L 297.991 783.416 L 297.316 785.279 L 296.642 787.136 L 295.968 788.987 L 295.295 790.832 L 294.622 792.671 L 293.950 794.503 L 293.279 796.329 L 292.608 798.149 L 291.937 799.962 L 291.267 801.769 L 290.598 803.569 L 289.929 805.363 L 289.260 807.151 L 288.593 808.932 L 287.925 810.706 L 287.259 812.474 L 286.593 814.235 L 285.927 815.989 L 285.262 817.737 L 284.598 819.478 L 283.934 821.212 L 283.270 822.939 L 282.608 824.659 L 281.945 826.372 L 281.284 828.078 L 280.623 829.777 L 279.962 831.470 L 279.302 833.155 L 278.643 834.833 L 277.984 836.503 L 277.326 838.167 L 276.669 839.823 L 276.011 841.472 L 275.355 843.114 L 274.699 844.748 L 274.044 846.375 L 273.389 847.995 L 272.735 849.607 L 272.082 851.211 L 271.429 852.808 L 270.776 854.398 L 270.125 855.979 L 269.474 857.554 L 268.823 859.120 L 268.173 860.679 L 267.524 862.230 L 266.875 863.773 L 266.227 865.309 L 265.579 866.836 L 264.933 868.356 L 264.286 869.868 L 263.641 871.372 L 262.996 872.868 L 262.351 874.355 L 261.707 875.835 L 261.064 877.307 L 260.421 878.771 L 259.779 880.226 L 259.138 881.673 L 258.497 883.112 L 257.857 884.543 L 257.218 885.966 L 256.579 887.380 L 255.941 888.786 L 255.303 890.183 L 254.666 891.572 L 254.030 892.953 L 253.394 894.325 L 252.759 895.689 L 252.125 897.044 L 251.491 898.391 L 250.858 899.729 L 250.225 901.058 L 249.594 902.379 L 248.962 903.691 L 248.332 904.995 L 247.702 906.289 L 247.073 907.575 L 246.444 908.852 L 245.816 910.121 L 245.189 911.380 L 244.563 912.631 L 243.937 913.872 L 243.311 915.105 L 242.687 916.329 L 242.063 917.544 L 241.439 918.750 L 240.817 919.947 L 240.195 921.134 L 239.574 922.313 L 238.953 923.482 L 238.333 924.643 L 237.714 925.794 L 237.095 926.936 L 236.477 928.069 L 235.860 929.192 L 235.244 930.307 L 234.628 931.412 L 234.013 932.507 L 233.398 933.594 L 232.784 934.671 L 232.171 935.738 L 231.559 936.796 L 230.947 937.845 L 230.336 938.884 L 229.726 939.914 L 229.116 940.934 L 228.507 941.945 L 227.899 942.946 L 227.291 943.938 L 226.685 944.920 L 226.079 945.892 L 225.473 946.855 L 224.868 947.808 L 224.264 948.751 L 223.661 949.685 L 223.059 950.609 L 222.457 951.523 L 221.856 952.428 L 221.255 953.323 L 220.655 954.207 L 220.056 955.082 L 219.458 955.948 L 218.861 956.803 L 218.264 957.648 L 217.668 958.484 L 217.072 959.310 L 216.478 960.125 L 215.884 960.931 L 215.290 961.727 L 214.698 962.513 L 214.106 963.288 L 213.515 964.054 L 212.925 964.810 L 212.335 965.556 L 211.747 966.291 L 211.159 967.017 L 210.571 967.732 L 209.985 968.437 L 209.399 969.132 L 208.814 969.817 L 208.230 970.492 L 207.646 971.157 L 207.063 971.811 L 206.481 972.455 L 205.900 973.089 L 205.319 973.713 L 204.740 974.326 L 204.161 974.929 L 203.582 975.522 L 203.005 976.105 L 202.428 976.677 L 201.852 977.239 L 201.277 977.791 L 200.702 978.332 L 200.129 978.863 L 199.556 979.383 L 198.984 979.893 L 198.412 980.393 L 197.842 980.882 L 197.272 981.361 L 196.703 981.830 L 196.135 982.288 L 195.567 982.736 L 195.000 983.173 L 194.435 983.599 L 193.869 984.016 L 193.305 984.421 L 192.742 984.816 L 192.179 985.201 L 191.617 985.575 L 191.056 985.939 L 190.495 986.292 L 189.936 986.635 L 189.377 986.967 L 188.819 987.288 L 188.262 987.599 L 187.705 987.900 L 187.150 988.189 L 186.595 988.469 L 186.041 988.737 L 185.487 988.995 L 184.935 989.243 L 184.383 989.480 L 183.833 989.706 L 183.283 989.922 L 182.734 990.127 L 182.185 990.321 L 181.638 990.505 L 181.091 990.678 L 180.545 990.840 L 180.000 990.992 L 179.456 991.133 L 178.912 991.264 L 178.370 991.384 L 177.828 991.493 L 177.287 991.592 L 176.747 991.680 L 176.207 991.757 L 175.669 991.824 L 175.131 991.880 L 174.594 991.925 L 174.058 991.960 L 173.523 991.984 L 172.989 991.997 L 172.455 992.000 L 171.923 991.992 L 171.391 991.973 L 170.860 991.944 L 170.330 991.904 L 169.801 991.853 L 169.272 991.792 L 168.745 991.720 L 168.218 991.637 L 167.692 991.544 L 167.167 991.440 L 166.643 991.325 L 166.119 991.200 L 165.597 991.064 L 165.075 990.918 L 164.554 990.760 L 164.035 990.593 L 163.515 990.414 L 162.997 990.225 L 162.480 990.025 L 161.963 989.815 L 161.448 989.594 L 160.933 989.363 L 160.419 989.120 L 159.906 988.868 L 159.394 988.604 L 158.883 988.330 L 158.372 988.046 L 157.863 987.751 L 157.354 987.445 L 156.846 987.129 L 156.340 986.802 L 155.833 986.465 L 155.328 986.117 L 154.824 985.759 L 154.321 985.390 L 153.818 985.010 L 153.317 984.620 L 152.816 984.220 L 152.316 983.809 L 151.817 983.387 L 151.319 982.955 L 150.822 982.513 L 150.326 982.060 L 149.830 981.597 L 149.336 981.123 L 148.842 980.639 L 148.349 980.145 L 147.858 979.640 L 147.367 979.124 L 146.877 978.599 L 146.387 978.062 L 145.899 977.516 L 145.412 976.959 L 144.926 976.392 L 144.440 975.815 L 143.956 975.227 L 143.472 974.629 L 142.989 974.021 L 142.507 973.402 L 142.026 972.773 L 141.546 972.134 L 141.067 971.485 L 140.589 970.826 L 140.112 970.156 L 139.635 969.476 L 139.160 968.786 L 138.685 968.086 L 138.212 967.376 L 137.739 966.655 L 137.267 965.925 L 136.796 965.184 L 136.327 964.433 L 135.858 963.673 L 135.390 962.902 L 134.922 962.121 L 134.456 961.330 L 133.991 960.529 L 133.527 959.719 L 133.063 958.898 L 132.601 958.067 L 132.139 957.227 L 131.679 956.377 L 131.219 955.516 L 130.760 954.646 L 130.303 953.766 L 129.846 952.876 L 129.390 951.977 L 128.935 951.067 L 128.481 950.148 L 128.028 949.219 L 127.576 948.281 L 127.125 947.333 L 126.675 946.375 L 126.225 945.407 L 125.777 944.430 L 125.330 943.443 L 124.883 942.447 L 124.438 941.441 L 123.993 940.425 L 123.550 939.400 L 123.107 938.366 L 122.666 937.322 L 122.225 936.268 L 121.786 935.205 L 121.347 934.133 L 120.909 933.052 L 120.472 931.961 L 120.037 930.860 L 119.602 929.751 L 119.168 928.632 L 118.735 927.504 L 118.303 926.366 L 117.872 925.220 L 117.442 924.064 L 117.013 922.899 L 116.585 921.725 L 116.158 920.542 L 115.732 919.349 L 115.307 918.148 L 114.883 916.938 L 114.460 915.718 L 114.037 914.490 L 113.616 913.253 L 113.196 912.007 L 112.777 910.752 L 112.359 909.488 L 111.941 908.215 L 111.525 906.933 L 111.110 905.643 L 110.696 904.344 L 110.282 903.036 L 109.870 901.720 L 109.459 900.395 L 109.048 899.061 L 108.639 897.719 L 108.231 896.368 L 107.823 895.008 L 107.417 893.640 L 107.012 892.264 L 106.607 890.879 L 106.204 889.486 L 105.802 888.084 L 105.401 886.674 L 105.000 885.255 L 104.601 883.829 L 104.203 882.394 L 103.805 880.951 L 103.409 879.499 L 103.014 878.040 L 102.619 876.572 L 102.226 875.096 L 101.834 873.612 L 101.443 872.121 L 101.053 870.621 L 100.663 869.113 L 100.275 867.597 L 99.888 866.074 L 99.502 864.542 L 99.117 863.003 L 98.733 861.455 L 98.349 859.901 L 97.967 858.338 L 97.586 856.768 L 97.206 855.190 L 96.827 853.604 L 96.449 852.011 L 96.072 850.410 L 95.696 848.802 L 95.321 847.186 L 94.948 845.563 L 94.575 843.932 L 94.203 842.294 L 93.832 840.649 L 93.462 838.996 L 93.094 837.336 L 92.726 835.669 L 92.359 833.995 L 91.994 832.313 L 91.629 830.624 L 91.266 828.929 L 90.903 827.226 L 90.542 825.516 L 90.181 823.800 L 89.822 822.076 L 89.464 820.345 L 89.106 818.608 L 88.750 816.864 L 88.395 815.113 L 88.041 813.355 L 87.688 811.591 L 87.335 809.820 L 86.984 808.042 L 86.635 806.258 L 86.286 804.467 L 85.938 802.670 L 85.591 800.866 L 85.245 799.056 L 84.900 797.240 L 84.557 795.417 L 84.214 793.588 L 83.873 791.752 L 83.532 789.910 L 83.193 788.063 L 82.854 786.209 L 82.517 784.349 L 82.181 782.483 L 81.846 780.611 L 81.512 778.732 L 81.178 776.849 L 80.846 774.959 L 80.516 773.063 L 80.186 771.161 L 79.857 769.254 L 79.529 767.341 L 79.202 765.423 L 78.877 763.498 L 78.552 761.568 L 78.229 759.633 L 77.906 757.692 L 77.585 755.746 L 77.265 753.794 L 76.946 751.837 L 76.628 749.874 L 76.311 747.906 L 75.995 745.933 L 75.680 743.955 L 75.366 741.972 L 75.053 739.983 L 74.742 737.990 L 74.431 735.991 L 74.122 733.988 L 73.813 731.979 L 73.506 729.966 L 73.200 727.948 L 72.894 725.925 L 72.590 723.897 L 72.287 721.864 L 71.986 719.827 L 71.685 717.786 L 71.385 715.739 L 71.086 713.688 L 70.789 711.633 L 70.492 709.573 L 70.197 707.509 L 69.903 705.441 L 69.610 703.368 L 69.317 701.291 L 69.026 699.210 L 68.737 697.124 L 68.448 695.035 L 68.160 692.941 L 67.873 690.843 L 67.588 688.742 L 67.303 686.636 L 67.020 684.527 L 66.738 682.414 L 66.457 680.297 L 66.177 678.176 L 65.898 676.052 L 65.620 673.923 L 65.343 671.792 L 65.068 669.657 L 64.793 667.518 L 64.520 665.376 L 64.247 663.230 L 63.976 661.081 L 63.706 658.929 L 63.437 656.773 L 63.169 654.615 L 62.902 652.453 L 62.637 650.288 L 62.372 648.119 L 62.109 645.948 L 61.846 643.774 L 61.585 641.597 L 61.325 639.417 L 61.066 637.235 L 60.808 635.049 L 60.551 632.861 L 60.296 630.670 L 60.041 628.476 L 59.788 626.280 L 59.535 624.081 L 59.284 621.880 L 59.034 619.676 L 58.785 617.470 L 58.537 615.262 L 58.290 613.051 L 58.045 610.838 L 57.800 608.623 L 57.557 606.406 L 57.315 604.187 L 57.074 601.965 L 56.834 599.742 L 56.595 597.516 L 56.357 595.289 L 56.120 593.060 L 55.885 590.829 L 55.650 588.597 L 55.417 586.362 L 55.185 584.126 L 54.954 581.889 L 54.724 579.649 L 54.495 577.409 L 54.268 575.167 L 54.041 572.923 L 53.816 570.678 L 53.592 568.432 L 53.369 566.185 L 53.147 563.936 L 52.926 561.686 L 52.706 559.435 L 52.488 557.183 L 52.270 554.930 L 52.054 552.676 L 51.839 550.422 L 51.625 548.166 L 51.412 545.909 L 51.200 543.652 L 50.990 541.394 L 50.780 539.136 L 50.572 536.876 L 50.365 534.617 L 50.159 532.357 L 49.954 530.096 L 49.750 527.835 L 49.547 525.573 L 49.346 523.312 L 49.146 521.050 L 48.946 518.787 L 48.748 516.525 L 48.551 514.263 L 48.356 512.000 L 48.161 509.737 L 47.968 507.475 L 47.775 505.213 L 47.584 502.950 L 47.394 500.688 L 47.205 498.427 L 47.017 496.165 L 46.831 493.904 L 46.645 491.643 L 46.461 489.383 L 46.278 487.124 L 46.096 484.864 L 45.915 482.606 L 45.735 480.348 L 45.557 478.091 L 45.379 475.834 L 45.203 473.578 L 45.028 471.324 L 44.854 469.070 L 44.681 466.817 L 44.510 464.565 L 44.339 462.314 L 44.170 460.064 L 44.002 457.815 L 43.835 455.568 L 43.669 453.322 L 43.504 451.077 L 43.341 448.833 L 43.178 446.591 L 43.017 444.351 L 42.857 442.111 L 42.698 439.874 L 42.540 437.638 L 42.384 435.403 L 42.228 433.171 L 42.074 430.940 L 41.921 428.711 L 41.769 426.484 L 41.618 424.258 L 41.468 422.035 L 41.320 419.813 L 41.173 417.594 L 41.026 415.377 L 40.881 413.162 L 40.738 410.949 L 40.595 408.738 L 40.453 406.530 L 40.313 404.324 L 40.174 402.120 L 40.036 399.919 L 39.899 397.720 L 39.763 395.524 L 39.629 393.330 L 39.496 391.139 L 39.363 388.951 L 39.232 386.765 L 39.103 384.583 L 38.974 382.403 L 38.846 380.226 L 38.720 378.052 L 38.595 375.881 L 38.471 373.712 L 38.348 371.547 L 38.226 369.385 L 38.106 367.227 L 37.987 365.071 L 37.868 362.919 L 37.751 360.770 L 37.636 358.624 L 37.521 356.482 L 37.407 354.343 L 37.295 352.208 L 37.184 350.077 L 37.074 347.948 L 36.965 345.824 L 36.858 343.703 L 36.751 341.586 L 36.646 339.473 L 36.542 337.364 L 36.439 335.258 L 36.337 333.157 L 36.237 331.059 L 36.137 328.965 L 36.039 326.876 L 35.942 324.790 L 35.846 322.709 L 35.751 320.632 L 35.658 318.559 L 35.566 316.491 L 35.474 314.427 L 35.384 312.367 L 35.296 310.312 L 35.208 308.261 L 35.122 306.214 L 35.036 304.173 L 34.952 302.136 L 34.869 300.103 L 34.787 298.075 L 34.707 296.052 L 34.628 294.034 L 34.549 292.021 L 34.472 290.012 L 34.396 288.009 L 34.322 286.010 L 34.248 284.017 L 34.176 282.028 L 34.105 280.045 L 34.035 278.067 L 33.966 276.094 L 33.898 274.126 L 33.832 272.163 L 33.767 270.206 L 33.703 268.254 L 33.640 266.308 L 33.578 264.367 L 33.518 262.432 L 33.458 260.502 L 33.400 258.577 L 33.343 256.659 L 33.287 254.746 L 33.233 252.839 L 33.179 250.937 L 33.127 249.041 L 33.076 247.151 L 33.026 245.268 L 32.977 243.389 L 32.930 241.517 L 32.884 239.651 L 32.838 237.791 L 32.795 235.937 L 32.752 234.090 L 32.710 232.248 L 32.670 230.412 L 32.630 228.583 L 32.592 226.760 L 32.556 224.944 L 32.520 223.134 L 32.485 221.330 L 32.452 219.533 L 32.420 217.742 L 32.389 215.958 L 32.359 214.180 L 32.331 212.409 L 32.303 210.645 L 32.277 208.887 L 32.252 207.136 L 32.228 205.392 L 32.206 203.655 L 32.184 201.924 L 32.164 200.200 L 32.145 198.484 L 32.127 196.774 L 32.110 195.071 L 32.094 193.376 L 32.080 191.687 L 32.067 190.005 L 32.055 188.331 L 32.044 186.664 L 32.034 185.004 L 32.026 183.351 L 32.019 181.706 L 32.013 180.068 L 32.008 178.437 L 32.004 176.814 L 32.002 175.198 L 32.000 173.590 L 32.000 171.989 L 32.001 170.396 L 32.003 168.810 L 32.007 167.232 L 32.011 165.662 L 32.017 164.099 L 32.024 162.545 L 32.032 160.997 L 32.042 159.458 L 32.052 157.926 L 32.064 156.403 L 32.077 154.887 L 32.091 153.379 L 32.106 151.879 L 32.122 150.388 L 32.140 148.904 L 32.159 147.428 L 32.179 145.960 L 32.200 144.501 L 32.222 143.049 L 32.246 141.606 L 32.271 140.171 L 32.297 138.745 L 32.324 137.326 L 32.352 135.916 L 32.381 134.514 L 32.412 133.121 L 32.444 131.736 L 32.477 130.360 L 32.511 128.992 L 32.547 127.632 L 32.583 126.281 L 32.621 124.939 L 32.660 123.605 L 32.700 122.280 L 32.741 120.964 L 32.784 119.656 L 32.827 118.357 L 32.872 117.067 L 32.918 115.785 L 32.965 114.512 L 33.014 113.248 L 33.063 111.993 L 33.114 110.747 L 33.166 109.510 L 33.219 108.282 L 33.274 107.062 L 33.329 105.852 L 33.386 104.651 L 33.444 103.458 L 33.503 102.275 L 33.563 101.101 L 33.624 99.936 L 33.687 98.780 L 33.751 97.634 L 33.816 96.496 L 33.882 95.368 L 33.949 94.249 L 34.018 93.140 L 34.087 92.039 L 34.158 90.948 L 34.230 89.867 L 34.303 88.795 L 34.378 87.732 L 34.453 86.678 L 34.530 85.634 L 34.608 84.600 L 34.687 83.575 L 34.767 82.559 L 34.849 81.553 L 34.931 80.557 L 35.015 79.570 L 35.100 78.593 L 35.186 77.625 L 35.274 76.667 L 35.362 75.719 L 35.452 74.781 L 35.543 73.852 L 35.635 72.933 L 35.728 72.023 L 35.822 71.124 L 35.918 70.234 L 36.015 69.354 L 36.113 68.484 L 36.212 67.623 L 36.312 66.773 L 36.413 65.933 L 36.516 65.102 L 36.620 64.281 L 36.725 63.471 L 36.831 62.670 L 36.938 61.879 L 37.047 61.098 L 37.156 60.327 L 37.267 59.567 L 37.379 58.816 L 37.492 58.075 L 37.607 57.345 L 37.722 56.624 L 37.839 55.914 L 37.957 55.214 L 38.076 54.524 L 38.196 53.844 L 38.317 53.174 L 38.440 52.515 L 38.564 51.866 L 38.689 51.227 L 38.815 50.598 L 38.942 49.979 L 39.070 49.371 L 39.200 48.773 L 39.331 48.185 L 39.462 47.608 L 39.595 47.041 L 39.730 46.484 L 39.865 45.938 L 40.002 45.401 L 40.139 44.876 L 40.278 44.360 L 40.418 43.855 L 40.559 43.361 L 40.702 42.877 L 40.845 42.403 L 40.990 41.940 L 41.136 41.487 L 41.283 41.045 L 41.431 40.613 L 41.580 40.191 L 41.731 39.780 L 41.883 39.380 L 42.035 38.990 L 42.189 38.610 L 42.345 38.241 L 42.501 37.883 L 42.658 37.535 L 42.817 37.198 L 42.977 36.871 L 43.138 36.555 L 43.300 36.249 L 43.463 35.954 L 43.628 35.670 L 43.793 35.396 L 43.960 35.132 L 44.128 34.880 L 44.297 34.637 L 44.467 34.406 L 44.638 34.185 L 44.811 33.975 L 44.984 33.775 L 45.159 33.586 L 45.335 33.407 L 45.512 33.240 L 45.691 33.082 L 45.870 32.936 L 46.051 32.800 L 46.232 32.675 L 46.415 32.560 L 46.599 32.456 L 46.784 32.363 L 46.971 32.280 L 47.158 32.208 L 47.347 32.147 L 47.536 32.096 L 47.727 32.056 L 47.919 32.027 L 48.113 32.008 L 48.307 32.000 L 48.502 32.003 L 48.699 32.016 L 48.897 32.040 L 49.096 32.075 L 49.296 32.120 L 49.497 32.176 L 49.699 32.243 L 49.903 32.320 L 50.107 32.408 L 50.313 32.507 L 50.520 32.616 L 50.728 32.736 L 50.937 32.867 L 51.148 33.008 L 51.359 33.160 L 51.572 33.322 L 51.785 33.495 L 52.000 33.679 L 52.216 33.873 L 52.433 34.078 L 52.652 34.294 L 52.871 34.520 L 53.091 34.757 L 53.313 35.005 L 53.536 35.263 L 53.760 35.531 L 53.985 35.811 L 54.211 36.100 L 54.438 36.401 L 54.667 36.712 L 54.897 37.033 L 55.127 37.365 L 55.359 37.708 L 55.592 38.061 L 55.826 38.425 L 56.061 38.799 L 56.298 39.184 L 56.535 39.579 L 56.774 39.984 L 57.013 40.401 L 57.254 40.827 L 57.496 41.264 L 57.739 41.712 L 57.984 42.170 L 58.229 42.639 L 58.475 43.118 L 58.723 43.607 L 58.972 44.107 L 59.221 44.617 L 59.472 45.137 L 59.724 45.668 L 59.978 46.209 L 60.232 46.761 L 60.487 47.323 L 60.744 47.895 L 61.001 48.478 L 61.260 49.071 L 61.520 49.674 L 61.781 50.287 L 62.043 50.911 L 62.306 51.545 L 62.570 52.189 L 62.836 52.843 L 63.102 53.508 L 63.370 54.183 L 63.639 54.868 L 63.908 55.563 L 64.179 56.268 L 64.451 56.983 L 64.725 57.709 L 64.999 58.444 L 65.274 59.190 L 65.551 59.946 L 65.828 60.712 L 66.107 61.487 L 66.387 62.273 L 66.667 63.069 L 66.949 63.875 L 67.232 64.690 L 67.517 65.516 L 67.802 66.352 L 68.088 67.197 L 68.376 68.052 L 68.664 68.918 L 68.954 69.793 L 69.245 70.677 L 69.536 71.572 L 69.829 72.477 L 70.123 73.391 L 70.418 74.315 L 70.715 75.249 L 71.012 76.192 L 71.310 77.145 L 71.610 78.108 L 71.910 79.080 L 72.212 80.062 L 72.515 81.054 L 72.818 82.055 L 73.123 83.066 L 73.429 84.086 L 73.736 85.116 L 74.044 86.155 L 74.354 87.204 L 74.664 88.262 L 74.975 89.329 L 75.288 90.406 L 75.601 91.493 L 75.916 92.588 L 76.231 93.693 L 76.548 94.808 L 76.866 95.931 L 77.185 97.064 L 77.505 98.206 L 77.826 99.357 L 78.148 100.518 L 78.471 101.687 L 78.796 102.866 L 79.121 104.053 L 79.447 105.250 L 79.775 106.456 L 80.103 107.671 L 80.433 108.895 L 80.764 110.128 L 81.095 111.369 L 81.428 112.620 L 81.762 113.879 L 82.097 115.148 L 82.433 116.425 L 82.770 117.711 L 83.108 119.005 L 83.447 120.309 L 83.787 121.621 L 84.129 122.942 L 84.471 124.271 L 84.814 125.609 L 85.159 126.956 L 85.504 128.311 L 85.851 129.675 L 86.199 131.047 L 86.547 132.428 L 86.897 133.817 L 87.248 135.214 L 87.599 136.620 L 87.952 138.034 L 88.306 139.457 L 88.661 140.888 L 89.017 142.327 L 89.374 143.774 L 89.732 145.229 L 90.091 146.693 L 90.451 148.165 L 90.813 149.645 L 91.175 151.132 L 91.538 152.628 L 91.903 154.132 L 92.268 155.644 L 92.634 157.164 L 93.002 158.691 L 93.370 160.227 L 93.740 161.770 L 94.110 163.321 L 94.482 164.880 L 94.854 166.446 L 95.228 168.021 L 95.603 169.602 L 95.978 171.192 L 96.355 172.789 L 96.733 174.393 L 97.111 176.005 L 97.491 177.625 L 97.872 179.252 L 98.254 180.886 L 98.637 182.528 L 99.021 184.177 L 99.405 185.833 L 99.791 187.497 L 100.178 189.167 L 100.566 190.845 L 100.955 192.530 L 101.345 194.223 L 101.736 195.922 L 102.128 197.628 L 102.521 199.341 L 102.915 201.061 L 103.310 202.788 L 103.706 204.522 L 104.103 206.263 L 104.501 208.011 L 104.900 209.765 L 105.300 211.526 L 105.701 213.294 L 106.103 215.068 L 106.507 216.849 L 106.911 218.637 L 107.316 220.431 L 107.722 222.231 L 108.129 224.038 L 108.537 225.851 L 108.946 227.671 L 109.356 229.497 L 109.767 231.329 L 110.179 233.168 L 110.592 235.013 L 111.006 236.864 L 111.421 238.721 L 111.837 240.584 L 112.254 242.453 L 112.672 244.328 L 113.091 246.209 L 113.511 248.096 L 113.932 249.988 L 114.354 251.887 L 114.777 253.791 L 115.201 255.702 L 115.626 257.617 L 116.051 259.539 L 116.478 261.466 L 116.906 263.399 L 117.335 265.337 L 117.764 267.280 L 118.195 269.230 L 118.627 271.184 L 119.060 273.144 L 119.493 275.109 L 119.928 277.079 L 120.363 279.055 L 120.800 281.036 L 121.237 283.022 L 121.676 285.013 L 122.115 287.009 L 122.556 289.010 L 122.997 291.016 L 123.439 293.027 L 123.883 295.043 L 124.327 297.063 L 124.772 299.089 L 125.218 301.119 L 125.665 303.154 L 126.113 305.193 L 126.562 307.237 L 127.012 309.286 L 127.463 311.339 L 127.915 313.396 L 128.368 315.458 L 128.821 317.525 L 129.276 319.595 L 129.732 321.670 L 130.188 323.749 L 130.646 325.833 L 131.104 327.920 L 131.564 330.012 L 132.024 332.107 L 132.485 334.207 L 132.948 336.310 L 133.411 338.418 L 133.875 340.529 L 134.340 342.644 L 134.806 344.763 L 135.273 346.886 L 135.740 349.012 L 136.209 351.142 L 136.679 353.275 L 137.150 355.412 L 137.621 357.553 L 138.093 359.697 L 138.567 361.844 L 139.041 363.995 L 139.516 366.149 L 139.992 368.306 L 140.470 370.466 L 140.948 372.630 L 141.426 374.796 L 141.906 376.966 L 142.387 379.138 L 142.869 381.314 L 143.351 383.492 L 143.835 385.674 L 144.319 387.858 L 144.804 390.045 L 145.290 392.234 L 145.777 394.427 L 146.265 396.622 L 146.754 398.819 L 147.244 401.019 L 147.735 403.221 L 148.226 405.426 L 148.719 407.634 L 149.212 409.843 L 149.706 412.055 L 150.202 414.269 L 150.698 416.485 L 151.195 418.703 L 151.692 420.924 L 152.191 423.146 L 152.691 425.371 L 153.191 427.597 L 153.693 429.825 L 154.195 432.055 L 154.698 434.287 L 155.202 436.520 L 155.707 438.756 L 156.213 440.992 L 156.720 443.231 L 157.227 445.471 L 157.736 447.712 L 158.245 449.955 L 158.755 452.199 L 159.266 454.445 L 159.778 456.692 L 160.291 458.940 L 160.805 461.189 L 161.319 463.439 L 161.834 465.691 L 162.351 467.943 L 162.868 470.197 L 163.386 472.451 L 163.905 474.706 L 164.424 476.962 L 164.945 479.219 L 165.466 481.477 L 165.989 483.735 L 166.512 485.994 L 167.036 488.253 L 167.561 490.513 L 168.086 492.774 L 168.613 495.035 L 169.140 497.296 L 169.668 499.558 L 170.197 501.819 L 170.727 504.082 L 171.258 506.344 L 171.790 508.606 L 172.322 510.869 L 172.855 513.131 L 173.390 515.394 L 173.925 517.656 L 174.460 519.918 L 174.997 522.181 L 175.534 524.442 L 176.073 526.704 L 176.612 528.965 L 177.152 531.226 L 177.693 533.487 L 178.234 535.747 L 178.777 538.006 L 179.320 540.265 L 179.864 542.523 L 180.409 544.781 L 180.954 547.038 L 181.501 549.294 L 182.048 551.549 L 182.596 553.803 L 183.145 556.057 L 183.695 558.309 L 184.246 560.561 L 184.797 562.811 L 185.349 565.060 L 185.902 567.308 L 186.456 569.555 L 187.011 571.801 L 187.566 574.045 L 188.122 576.288 L 188.679 578.529 L 189.237 580.769 L 189.796 583.008 L 190.355 585.244 L 190.915 587.480 L 191.476 589.713 L 192.038 591.945 L 192.601 594.175 L 193.164 596.403 L 193.728 598.629 L 194.293 600.854 L 194.859 603.076 L 195.425 605.297 L 195.993 607.515 L 196.561 609.731 L 197.130 611.945 L 197.699 614.157 L 198.270 616.366 L 198.841 618.574 L 199.413 620.779 L 199.985 622.981 L 200.559 625.181 L 201.133 627.378 L 201.708 629.573 L 202.284 631.766 L 202.861 633.955 L 203.438 636.142 L 204.016 638.326 L 204.595 640.508 L 205.174 642.686 L 205.755 644.862 L 206.336 647.034 L 206.918 649.204 L 207.500 651.370 L 208.084 653.534 L 208.668 655.694 L 209.253 657.851 L 209.838 660.005 L 210.425 662.156 L 211.012 664.303 L 211.600 666.447 L 212.188 668.588 L 212.778 670.725 L 213.368 672.858 L 213.958 674.988 L 214.550 677.114 L 215.142 679.237 L 215.735 681.356 L 216.329 683.471 L 216.923 685.582 L 217.519 687.690 L 218.115 689.793 L 218.711 691.893 L 219.309 693.988 L 219.907 696.080 L 220.506 698.167 L 221.105 700.251 L 221.705 702.330 L 222.306 704.405 L 222.908 706.475 L 223.510 708.542 L 224.114 710.604 L 224.717 712.661 L 225.322 714.714 L 225.927 716.763 L 226.533 718.807 L 227.140 720.846 L 227.747 722.881 L 228.355 724.911 L 228.964 726.937 L 229.573 728.957 L 230.183 730.973 L 230.794 732.984 L 231.406 734.990 L 232.018 736.991 L 232.631 738.987 L 233.245 740.978 L 233.859 742.964 L 234.474 744.945 L 235.090 746.921 L 235.706 748.891 L 236.323 750.856 L 236.941 752.816 L 237.559 754.770 L 238.178 756.720 L 238.798 758.663 L 239.418 760.601 L 240.040 762.534 L 240.661 764.461 L 241.284 766.383 L 241.907 768.298 L 242.531 770.209 L 243.155 772.113 L 243.780 774.012 L 244.406 775.904 L 245.032 777.791 L 245.660 779.672 L 246.287 781.547 L 246.916 783.416 L 247.545 785.279 L 248.174 787.136 L 248.805 788.987 L 249.436 790.832 L 250.067 792.671 L 250.700 794.503 L 251.333 796.329 L 251.966 798.149 L 252.601 799.962 L 253.235 801.769 L 253.871 803.569 L 254.507 805.363 L 255.144 807.151 L 255.781 808.932 L 256.419 810.706 L 257.058 812.474 L 257.697 814.235 L 258.337 815.989 L 258.978 817.737 L 259.619 819.478 L 260.261 821.212 L 260.903 822.939 L 261.546 824.659 L 262.190 826.372 L 262.834 828.078 L 263.479 829.777 L 264.125 831.470 L 264.771 833.155 L 265.418 834.833 L 266.065 836.503 L 266.713 838.167 L 267.362 839.823 L 268.011 841.472 L 268.661 843.114 L 269.311 844.748 L 269.962 846.375 L 270.613 847.995 L 271.266 849.607 L 271.918 851.211 L 272.572 852.808 L 273.226 854.398 L 273.880 855.979 L 274.535 857.554 L 275.191 859.120 L 275.847 860.679 L 276.504 862.230 L 277.162 863.773 L 277.820 865.309 L 278.478 866.836 L 279.137 868.356 L 279.797 869.868 L 280.458 871.372 L 281.119 872.868 L 281.780 874.355 L 282.442 875.835 L 283.105 877.307 L 283.768 878.771 L 284.432 880.226 L 285.096 881.673 L 285.761 883.112 L 286.426 884.543 L 287.092 885.966 L 287.759 887.380 L 288.426 888.786 L 289.093 890.183 L 289.762 891.572 L 290.430 892.953 L 291.100 894.325 L 291.769 895.689 L 292.440 897.044 L 293.111 898.391 L 293.782 899.729 L 294.454 901.058 L 295.127 902.379 L 295.800 903.691 L 296.473 904.995 L 297.148 906.289 L 297.822 907.575 L 298.497 908.852 L 299.173 910.121 L 299.849 911.380 L 300.526 912.631 L 301.203 913.872 L 301.881 915.105 L 302.560 916.329 L 303.238 917.544 L 303.918 918.750 L 304.598 919.947 L 305.278 921.134 L 305.959 922.313 L 306.640 923.482 L 307.322 924.643 L 308.005 925.794 L 308.688 926.936 L 309.371 928.069 L 310.055 929.192 L 310.739 930.307 L 311.424 931.412 L 312.110 932.507 L 312.796 933.594 L 313.482 934.671 L 314.169 935.738 L 314.856 936.796 L 315.544 937.845 L 316.233 938.884 L 316.921 939.914 L 317.611 940.934 L 318.301 941.945 L 318.991 942.946 L 319.682 943.938 L 320.373 944.920 L 321.065 945.892 L 321.757 946.855 L 322.449 947.808 L 323.142 948.751 L 323.836 949.685 L 324.530 950.609 L 325.225 951.523 L 325.920 952.428 L 326.615 953.323 L 327.311 954.207 L 328.007 955.082 L 328.704 955.948 L 329.401 956.803 L 330.099 957.648 L 330.797 958.484 L 331.496 959.310 L 332.195 960.125 L 332.894 960.931 L 333.594 961.727 L 334.294 962.513 L 334.995 963.288 L 335.696 964.054 L 336.398 964.810 L 337.100 965.556 L 337.803 966.291 L 338.506 967.017 L 339.209 967.732 L 339.913 968.437 L 340.617 969.132 L 341.322 969.817 L 342.027 970.492 L 342.733 971.157 L 343.438 971.811 L 344.145 972.455 L 344.852 973.089 L 345.559 973.713 L 346.266 974.326 L 346.974 974.929 L 347.683 975.522 L 348.392 976.105 L 349.101 976.677 L 349.810 977.239 L 350.520 977.791 L 351.231 978.332 L 351.942 978.863 L 352.653 979.383 L 353.364 979.893 L 354.076 980.393 L 354.789 980.882 L 355.501 981.361 L 356.215 981.830 L 356.928 982.288 L 357.642 982.736 L 358.356 983.173 L 359.071 983.599 L 359.786 984.016 L 360.502 984.421 L 361.217 984.816 L 361.934 985.201 L 362.650 985.575 L 363.367 985.939 L 364.084 986.292 L 364.802 986.635 L 365.520 986.967 L 366.238 987.288 L 366.957 987.599 L 367.676 987.900 L 368.396 988.189 L 369.115 988.469 L 369.836 988.737 L 370.556 988.995 L 371.277 989.243 L 371.998 989.480 L 372.720 989.706 L 373.442 989.922 L 374.164 990.127 L 374.886 990.321 L 375.609 990.505 L 376.333 990.678 L 377.056 990.840 L 377.780 990.992 L 378.504 991.133 L 379.229 991.264 L 379.954 991.384 L 380.679 991.493 L 381.405 991.592 L 382.131 991.680 L 382.857 991.757 L 383.583 991.824 L 384.310 991.880 L 385.037 991.925 L 385.765 991.960 L 386.493 991.984 L 387.221 991.997 L 387.949 992.000 L 388.678 991.992 L 389.407 991.973 L 390.136 991.944 L 390.866 991.904 L 391.596 991.853 L 392.326 991.792 L 393.056 991.720 L 393.787 991.637 L 394.518 991.544 L 395.249 991.440 L 395.981 991.325 L 396.713 991.200 L 397.445 991.064 L 398.178 990.918 L 398.911 990.760 L 399.644 990.593 L 400.377 990.414 L 401.111 990.225 L 401.845 990.025 L 402.579 989.815 L 403.313 989.594 L 404.048 989.363 L 404.783 989.120 L 405.518 988.868 L 406.254 988.604 L 406.990 988.330 L 407.726 988.046 L 408.462 987.751 L 409.198 987.445 L 409.935 987.129 L 410.672 986.802 L 411.410 986.465 L 412.147 986.117 L 412.885 985.759 L 413.623 985.390 L 414.361 985.010 L 415.100 984.620 L 415.838 984.220 L 416.577 983.809 L 417.317 983.387 L 418.056 982.955 L 418.796 982.513 L 419.536 982.060 L 420.276 981.597 L 421.016 981.123 L 421.757 980.639 L 422.498 980.145 L 423.239 979.640 L 423.980 979.124 L 424.722 978.599 L 425.463 978.062 L 426.205 977.516 L 426.947 976.959 L 427.690 976.392 L 428.432 975.815 L 429.175 975.227 L 429.918 974.629 L 430.661 974.021 L 431.405 973.402 L 432.148 972.773 L 432.892 972.134 L 433.636 971.485 L 434.380 970.826 L 435.124 970.156 L 435.869 969.476 L 436.614 968.786 L 437.358 968.086 L 438.104 967.376 L 438.849 966.655 L 439.594 965.925 L 440.340 965.184 L 441.086 964.433 L 441.832 963.673 L 442.578 962.902 L 443.324 962.121 L 444.071 961.330 L 444.817 960.529 L 445.564 959.719 L 446.311 958.898 L 447.058 958.067 L 447.806 957.227 L 448.553 956.377 L 449.301 955.516 L 450.048 954.646 L 450.796 953.766 L 451.545 952.876 L 452.293 951.977 L 453.041 951.067 L 453.790 950.148 L 454.538 949.219 L 455.287 948.281 L 456.036 947.333 L 456.785 946.375 L 457.534 945.407 L 458.284 944.430 L 459.033 943.443 L 459.783 942.447 L 460.533 941.441 L 461.283 940.425 L 462.033 939.400 L 462.783 938.366 L 463.533 937.322 L 464.283 936.268 L 465.034 935.205 L 465.784 934.133 L 466.535 933.052 L 467.286 931.961 L 468.037 930.860 L 468.788 929.751 L 469.539 928.632 L 470.290 927.504 L 471.042 926.366 L 471.793 925.220 L 472.545 924.064 L 473.297 922.899 L 474.048 921.725 L 474.800 920.542 L 475.552 919.349 L 476.304 918.148 L 477.056 916.938 L 477.808 915.718 L 478.561 914.490 L 479.313 913.253 L 480.066 912.007 L 480.818 910.752 L 481.571 909.488 L 482.323 908.215 L 483.076 906.933 L 483.829 905.643 L 484.582 904.344 L 485.335 903.036 L 486.088 901.720 L 486.841 900.395 L 487.594 899.061 L 488.347 897.719 L 489.101 896.368 L 489.854 895.008 L 490.607 893.640 L 491.361 892.264 L 492.114 890.879 L 492.868 889.486 L 493.622 888.084 L 494.375 886.674 L 495.129 885.255 L 495.883 883.829 L 496.636 882.394 L 497.390 880.951 L 498.144 879.499 L 498.898 878.040 L 499.652 876.572 L 500.406 875.096 L 501.160 873.612 L 501.914 872.121 L 502.668 870.621 L 503.422 869.113 L 504.176 867.597 L 504.930 866.074 L 505.684 864.542 L 506.438 863.003 L 507.192 861.455 L 507.946 859.901 L 508.701 858.338 L 509.455 856.768 L 510.209 855.190 L 510.963 853.604 L 511.717 852.011 L 512.471 850.410 L 513.226 848.802 L 513.980 847.186 L 514.734 845.563 L 515.488 843.932 L 516.242 842.294 L 516.996 840.649 L 517.750 838.996 L 518.505 837.336 L 519.259 835.669 L 520.013 833.995 L 520.767 832.313 L 521.521 830.624 L 522.275 828.929 L 523.029 827.226 L 523.783 825.516 L 524.537 823.800 L 525.291 822.076 L 526.044 820.345 L 526.798 818.608 L 527.552 816.864 L 528.306 815.113 L 529.060 813.355 L 529.813 811.591 L 530.567 809.820 L 531.320 808.042 L 532.074 806.258 L 532.827 804.467 L 533.581 802.670 L 534.334 800.866 L 535.088 799.056 L 535.841 797.240 L 536.594 795.417 L 537.347 793.588 L 538.100 791.752 L 538.853 789.910 L 539.606 788.063 L 540.359 786.209 L 541.112 784.349 L 541.865 782.483 L 542.617 780.611 L 543.370 778.732 L 544.123 776.849 L 544.875 774.959 L 545.627 773.063 L 546.380 771.161 L 547.132 769.254 L 547.884 767.341 L 548.636 765.423 L 549.388 763.498 L 550.140 761.568 L 550.891 759.633 L 551.643 757.692 L 552.395 755.746 L 553.146 753.794 L 553.897 751.837 L 554.649 749.874 L 555.400 747.906 L 556.151 745.933 L 556.902 743.955 L 557.652 741.972 L 558.403 739.983 L 559.154 737.990 L 559.904 735.991 L 560.655 733.988 L 561.405 731.979 L 562.155 729.966 L 562.905 727.948 L 563.655 725.925 L 564.404 723.897 L 565.154 721.864 L 565.904 719.827 L 566.653 717.786 L 567.402 715.739 L 568.151 713.688 L 568.900 711.633 L 569.649 709.573 L 570.397 707.509 L 571.146 705.441 L 571.894 703.368 L 572.643 701.291 L 573.391 699.210 L 574.138 697.124 L 574.886 695.035 L 575.634 692.941 L 576.381 690.843 L 577.129 688.742 L 577.876 686.636 L 578.623 684.527 L 579.369 682.414 L 580.116 680.297 L 580.862 678.176 L 581.609 676.052 L 582.355 673.923 L 583.101 671.792 L 583.847 669.657 L 584.592 667.518 L 585.338 665.376 L 586.083 663.230 L 586.828 661.081 L 587.573 658.929 L 588.317 656.773 L 589.062 654.615 L 589.806 652.453 L 590.550 650.288 L 591.294 648.119 L 592.038 645.948 L 592.781 643.774 L 593.525 641.597 L 594.268 639.417 L 595.011 637.235 L 595.753 635.049 L 596.496 632.861 L 597.238 630.670 L 597.980 628.476 L 598.722 626.280 L 599.464 624.081 L 600.205 621.880 L 600.946 619.676 L 601.687 617.470 L 602.428 615.262 L 603.169 613.051 L 603.909 610.838 L 604.649 608.623 L 605.389 606.406 L 606.129 604.187 L 606.868 601.965 L 607.607 599.742 L 608.346 597.516 L 609.085 595.289 L 609.823 593.060 L 610.562 590.829 L 611.300 588.597 L 612.037 586.362 L 612.775 584.126 L 613.512 581.889 L 614.249 579.649 L 614.986 577.409 L 615.722 575.167 L 616.458 572.923 L 617.194 570.678 L 617.930 568.432 L 618.666 566.185 L 619.401 563.936 L 620.136 561.686 L 620.870 559.435 L 621.605 557.183 L 622.339 554.930 L 623.073 552.676 L 623.806 550.422 L 624.540 548.166 L 625.273 545.909 L 626.005 543.652 L 626.738 541.394 L 627.470 539.136 L 628.202 536.876 L 628.933 534.617 L 629.665 532.357 L 630.396 530.096 L 631.126 527.835 L 631.857 525.573 L 632.587 523.312 L 633.317 521.050 L 634.046 518.787 L 634.776 516.525 L 635.505 514.263 L 636.233 512.000 L 636.961 509.737 L 637.689 507.475 L 638.417 505.213 L 639.145 502.950 L 639.872 500.688 L 640.598 498.427 L 641.325 496.165 L 642.051 493.904 L 642.777 491.643 L 643.502 489.383 L 644.227 487.124 L 644.952 484.864 L 645.677 482.606 L 646.401 480.348 L 647.125 478.091 L 647.848 475.834 L 648.571 473.578 L 649.294 471.324 L 650.017 469.070 L 650.739 466.817 L 651.461 464.565 L 652.182 462.314 L 652.903 460.064 L 653.624 457.815 L 654.344 455.568 L 655.065 453.322 L 655.784 451.077 L 656.504 448.833 L 657.223 446.591 L 657.941 444.351 L 658.660 442.111 L 659.377 439.874 L 660.095 437.638 L 660.812 435.403 L 661.529 433.171 L 662.246 430.940 L 662.962 428.711 L 663.677 426.484 L 664.393 424.258 L 665.108 422.035 L 665.822 419.813 L 666.536 417.594 L 667.250 415.377 L 667.964 413.162 L 668.677 410.949 L 669.389 408.738 L 670.102 406.530 L 670.814 404.324 L 671.525 402.120 L 672.236 399.919 L 672.947 397.720 L 673.657 395.524 L 674.367 393.330 L 675.077 391.139 L 675.786 388.951 L 676.494 386.765 L 677.203 384.583 L 677.911 382.403 L 678.618 380.226 L 679.325 378.052 L 680.032 375.881 L 680.738 373.712 L 681.444 371.547 L 682.149 369.385 L 682.854 367.227 L 683.559 365.071 L 684.263 362.919 L 684.967 360.770 L 685.670 358.624 L 686.373 356.482 L 687.075 354.343 L 687.777 352.208 L 688.479 350.077 L 689.180 347.948 L 689.881 345.824 L 690.581 343.703 L 691.281 341.586 L 691.980 339.473 L 692.679 337.364 L 693.378 335.258 L 694.076 333.157 L 694.773 331.059 L 695.470 328.965 L 696.167 326.876 L 696.863 324.790 L 697.559 322.709 L 698.254 320.632 L 698.949 318.559 L 699.643 316.491 L 700.337 314.427 L 701.031 312.367 L 701.724 310.312 L 702.416 308.261 L 703.108 306.214 L 703.800 304.173 L 704.491 302.136 L 705.182 300.103 L 705.872 298.075 L 706.562 296.052 L 707.251 294.034 L 707.940 292.021 L 708.628 290.012 L 709.316 288.009 L 710.003 286.010 L 710.690 284.017 L 711.376 282.028 L 712.062 280.045 L 712.747 278.067 L 713.432 276.094 L 714.116 274.126 L 714.800 272.163 L 715.483 270.206 L 716.166 268.254 L 716.848 266.308 L 717.530 264.367 L 718.211 262.432 L 718.892 260.502 L 719.572 258.577 L 720.252 256.659 L 720.931 254.746 L 721.610 252.839 L 722.288 250.937 L 722.966 249.041 L 723.643 247.151 L 724.320 245.268 L 724.996 243.389 L 725.671 241.517 L 726.346 239.651 L 727.021 237.791 L 727.695 235.937 L 728.368 234.090 L 729.041 232.248 L 729.714 230.412 L 730.386 228.583 L 731.057 226.760 L 731.728 224.944 L 732.398 223.134 L 733.068 221.330 L 733.737 219.533 L 734.405 217.742 L 735.074 215.958 L 735.741 214.180 L 736.408 212.409 L 737.074 210.645 L 737.740 208.887 L 738.406 207.136 L 739.070 205.392 L 739.734 203.655 L 740.398 201.924 L 741.061 200.200 L 741.724 198.484 L 742.385 196.774 L 743.047 195.071 L 743.708 193.376 L 744.368 191.687 L 745.027 190.005 L 745.686 188.331 L 746.345 186.664 L 747.003 185.004 L 747.660 183.351 L 748.317 181.706 L 748.973 180.068 L 749.629 178.437 L 750.283 176.814 L 750.938 175.198 L 751.592 173.590 L 752.245 171.989 L 752.897 170.396 L 753.550 168.810 L 754.201 167.232 L 754.852 165.662 L 755.502 164.099 L 756.152 162.545 L 756.801 160.997 L 757.449 159.458 L 758.097 157.926 L 758.744 156.403 L 759.391 154.887 L 760.037 153.379 L 760.682 151.879 L 761.327 150.388 L 761.971 148.904 L 762.614 147.428 L 763.257 145.960 L 763.900 144.501 L 764.541 143.049 L 765.182 141.606 L 765.823 140.171 L 766.463 138.745 L 767.102 137.326 L 767.740 135.916 L 768.378 134.514 L 769.015 133.121 L 769.652 131.736 L 770.288 130.360 L 770.923 128.992 L 771.558 127.632 L 772.192 126.281 L 772.826 124.939 L 773.458 123.605 L 774.091 122.280 L 774.722 120.964 L 775.353 119.656 L 775.983 118.357 L 776.613 117.067 L 777.241 115.785 L 777.870 114.512 L 778.497 113.248 L 779.124 111.993 L 779.751 110.747 L 780.376 109.510 L 781.001 108.282 L 781.625 107.062 L 782.249 105.852 L 782.872 104.651 L 783.494 103.458 L 784.116 102.275 L 784.737 101.101 L 785.357 99.936 L 785.977 98.780 L 786.595 97.634 L 787.214 96.496 L 787.831 95.368 L 788.448 94.249 L 789.064 93.140 L 789.680 92.039 L 790.295 90.948 L 790.909 89.867 L 791.522 88.795 L 792.135 87.732 L 792.747 86.678 L 793.358 85.634 L 793.969 84.600 L 794.579 83.575 L 795.188 82.559 L 795.797 81.553 L 796.405 80.557 L 797.012 79.570 L 797.618 78.593 L 798.224 77.625 L 798.829 76.667 L 799.434 75.719 L 800.037 74.781 L 800.640 73.852 L 801.242 72.933 L 801.844 72.023 L 802.445 71.124 L 803.045 70.234 L 803.644 69.354 L 804.243 68.484 L 804.841 67.623 L 805.438 66.773 L 806.034 65.933 L 806.630 65.102 L 807.225 64.281 L 807.820 63.471 L 808.413 62.670 L 809.006 61.879 L 809.598 61.098 L 810.189 60.327 L 810.780 59.567 L 811.370 58.816 L 811.959 58.075 L 812.547 57.345 L 813.135 56.624 L 813.722 55.914 L 814.308 55.214 L 814.894 54.524 L 815.478 53.844 L 816.062 53.174 L 816.645 52.515 L 817.228 51.866 L 817.809 51.227 L 818.390 50.598 L 818.971 49.979 L 819.550 49.371 L 820.129 48.773 L 820.707 48.185 L 821.284 47.608 L 821.860 47.041 L 822.436 46.484 L 823.010 45.938 L 823.584 45.401 L 824.158 44.876 L 824.730 44.360 L 825.302 43.855 L 825.873 43.361 L 826.443 42.877 L 827.013 42.403 L 827.581 41.940 L 828.149 41.487 L 828.716 41.045 L 829.283 40.613 L 829.848 40.191 L 830.413 39.780 L 830.977 39.380 L 831.540 38.990 L 832.102 38.610 L 832.664 38.241 L 833.225 37.883 L 833.785 37.535 L 834.344 37.198 L 834.902 36.871 L 835.460 36.555 L 836.017 36.249 L 836.573 35.954 L 837.128 35.670 L 837.682 35.396 L 838.236 35.132 L 838.789 34.880 L 839.341 34.637 L 839.892 34.406 L 840.442 34.185 L 840.992 33.975 L 841.541 33.775 L 842.089 33.586 L 842.636 33.407 L 843.182 33.240 L 843.728 33.082 L 844.272 32.936 L 844.816 32.800 L 845.359 32.675 L 845.901 32.560 L 846.443 32.456 L 846.983 32.363 L 847.523 32.280 L 848.062 32.208 L 848.600 32.147 L 849.137 32.096 L 849.674 32.056 L 850.209 32.027 L 850.744 32.008 L 851.278 32.000 L 851.811 32.003 L 852.343 32.016 L 852.875 32.040 L 853.405 32.075 L 853.935 32.120 L 854.464 32.176 L 854.992 32.243 L 855.519 32.320 L 856.045 32.408 L 856.571 32.507 L 857.095 32.616 L 857.619 32.736 L 858.142 32.867 L 858.664 33.008 L 859.185 33.160 L 859.706 33.322 L 860.225 33.495 L 860.744 33.679 L 861.262 33.873 L 861.778 34.078 L 862.294 34.294 L 862.810 34.520 L 863.324 34.757 L 863.837 35.005 L 864.350 35.263 L 864.862 35.531 L 865.373 35.811 L 865.883 36.100 L 866.392 36.401 L 866.900 36.712 L 867.407 37.033 L 867.914 37.365 L 868.419 37.708 L 868.924 38.061 L 869.428 38.425 L 869.931 38.799 L 870.433 39.184 L 870.934 39.579 L 871.434 39.984 L 871.934 40.401 L 872.432 40.827 L 872.930 41.264 L 873.426 41.712 L 873.922 42.170 L 874.417 42.639 L 874.911 43.118 L 875.404 43.607 L 875.897 44.107 L 876.388 44.617 L 876.879 45.137 L 877.368 45.668 L 877.857 46.209 L 878.344 46.761 L 878.831 47.323 L 879.317 47.895 L 879.802 48.478 L 880.286 49.071 L 880.770 49.674 L 881.252 50.287 L 881.733 50.911 L 882.214 51.545 L 882.693 52.189 L 883.172 52.843 L 883.650 53.508 L 884.127 54.183 L 884.603 54.868 L 885.078 55.563 L 885.552 56.268 L 886.025 56.983 L 886.497 57.709 L 886.968 58.444 L 887.439 59.190 L 887.908 59.946 L 888.377 60.712 L 888.844 61.487 L 889.311 62.273 L 889.777 63.069 L 890.241 63.875 L 890.705 64.690 L 891.168 65.516 L 891.630 66.352 L 892.091 67.197 L 892.551 68.052 L 893.010 68.918 L 893.469 69.793 L 893.926 70.677 L 894.382 71.572 L 894.838 72.477 L 895.292 73.391 L 895.746 74.315 L 896.198 75.249 L 896.650 76.192 L 897.100 77.145 L 897.550 78.108 L 897.999 79.080 L 898.447 80.062 L 898.894 81.054 L 899.339 82.055 L 899.784 83.066 L 900.228 84.086 L 900.671 85.116 L 901.113 86.155 L 901.555 87.204 L 901.995 88.262 L 902.434 89.329 L 902.872 90.406 L 903.309 91.493 L 903.746 92.588 L 904.181 93.693 L 904.615 94.808 L 905.049 95.931 L 905.481 97.064 L 905.913 98.206 L 906.343 99.357 L 906.773 100.518 L 907.201 101.687 L 907.629 102.866 L 908.055 104.053 L 908.481 105.250 L 908.905 106.456 L 909.329 107.671 L 909.752 108.895 L 910.173 110.128 L 910.594 111.369 L 911.014 112.620 L 911.432 113.879 L 911.850 115.148 L 912.267 116.425 L 912.683 117.711 L 913.097 119.005 L 913.511 120.309 L 913.924 121.621 L 914.336 122.942 L 914.747 124.271 L 915.156 125.609 L 915.565 126.956 L 915.973 128.311 L 916.380 129.675 L 916.786 131.047 L 917.190 132.428 L 917.594 133.817 L 917.997 135.214 L 918.399 136.620 L 918.800 138.034 L 919.200 139.457 L 919.598 140.888 L 919.996 142.327 L 920.393 143.774 L 920.789 145.229 L 921.184 146.693 L 921.577 148.165 L 921.970 149.645 L 922.362 151.132 L 922.752 152.628 L 923.142 154.132 L 923.531 155.644 L 923.919 157.164 L 924.305 158.691 L 924.691 160.227 L 925.076 161.770 L 925.459 163.321 L 925.842 164.880 L 926.223 166.446 L 926.604 168.021 L 926.983 169.602 L 927.362 171.192 L 927.739 172.789 L 928.116 174.393 L 928.491 176.005 L 928.866 177.625 L 929.239 179.252 L 929.611 180.886 L 929.983 182.528 L 930.353 184.177 L 930.722 185.833 L 931.090 187.497 L 931.457 189.167 L 931.824 190.845 L 932.189 192.530 L 932.553 194.223 L 932.916 195.922 L 933.278 197.628 L 933.639 199.341 L 933.999 201.061 L 934.357 202.788 L 934.715 204.522 L 935.072 206.263 L 935.428 208.011 L 935.782 209.765 L 936.136 211.526 L 936.489 213.294 L 936.840 215.068 L 937.191 216.849 L 937.540 218.637 L 937.888 220.431 L 938.236 222.231 L 938.582 224.038 L 938.927 225.851 L 939.272 227.671 L 939.615 229.497 L 939.957 231.329 L 940.298 233.168 L 940.638 235.013 L 940.977 236.864 L 941.314 238.721 L 941.651 240.584 L 941.987 242.453 L 942.322 244.328 L 942.655 246.209 L 942.988 248.096 L 943.319 249.988 L 943.650 251.887 L 943.979 253.791 L 944.307 255.702 L 944.634 257.617 L 944.961 259.539 L 945.286 261.466 L 945.610 263.399 L 945.932 265.337 L 946.254 267.280 L 946.575 269.230 L 946.895 271.184 L 947.213 273.144 L 947.531 275.109 L 947.848 277.079 L 948.163 279.055 L 948.477 281.036 L 948.791 283.022 L 949.103 285.013 L 949.414 287.009 L 949.724 289.010 L 950.033 291.016 L 950.341 293.027 L 950.647 295.043 L 950.953 297.063 L 951.258 299.089 L 951.561 301.119 L 951.864 303.154 L 952.165 305.193 L 952.465 307.237 L 952.764 309.286 L 953.063 311.339 L 953.360 313.396 L 953.655 315.458 L 953.950 317.525 L 954.244 319.595 L 954.537 321.670 L 954.828 323.749 L 955.119 325.833 L 955.408 327.920 L 955.696 330.012 L 955.983 332.107 L 956.270 334.207 L 956.555 336.310 L 956.838 338.418 L 957.121 340.529 L 957.403 342.644 L 957.683 344.763 L 957.963 346.886 L 958.241 349.012 L 958.519 351.142 L 958.795 353.275 L 959.070 355.412 L 959.344 357.553 L 959.617 359.697 L 959.888 361.844 L 960.159 363.995 L 960.429 366.149 L 960.697 368.306 L 960.964 370.466 L 961.231 372.630 L 961.496 374.796 L 961.760 376.966 L 962.023 379.138 L 962.285 381.314 L 962.545 383.492 L 962.805 385.674 L 963.063 387.858 L 963.321 390.045 L 963.577 392.234 L 963.832 394.427 L 964.086 396.622 L 964.339 398.819 L 964.591 401.019 L 964.841 403.221 L 965.091 405.426 L 965.339 407.634 L 965.586 409.843 L 965.833 412.055 L 966.078 414.269 L 966.322 416.485 L 966.564 418.703 L 966.806 420.924 L 967.047 423.146 L 967.286 425.371 L 967.524 427.597 L 967.762 429.825 L 967.998 432.055 L 968.233 434.287 L 968.466 436.520 L 968.699 438.756 L 968.931 440.992 L 969.161 443.231 L 969.390 445.471 L 969.618 447.712 L 969.846 449.955 L 970.071 452.199 L 970.296 454.445 L 970.520 456.692 L 970.742 458.940 L 970.964 461.189 L 971.184 463.439 L 971.403 465.691 L 971.621 467.943 L 971.838 470.197 L 972.054 472.451 L 972.268 474.706 L 972.482 476.962 L 972.694 479.219 L 972.905 481.477 L 973.115 483.735 L 973.324 485.994 L 973.532 488.253 L 973.738 490.513 L 973.944 492.774 L 974.148 495.035 L 974.351 497.296 L 974.554 499.558 L 974.754 501.819 L 974.954 504.082 L 975.153 506.344 L 975.350 508.606 L 975.547 510.869 L 975.742 513.131 L 975.936 515.394 L 976.129 517.656 L 976.321 519.918 L 976.511 522.181 L 976.701 524.442 L 976.889 526.704 L 977.076 528.965 L 977.262 531.226 L 977.447 533.487 L 977.631 535.747 L 977.813 538.006 L 977.995 540.265 L 978.175 542.523 L 978.354 544.781 L 978.532 547.038 L 978.709 549.294 L 978.885 551.549 L 979.059 553.803 L 979.232 556.057 L 979.405 558.309 L 979.576 560.561 L 979.746 562.811 L 979.914 565.060 L 980.082 567.308 L 980.248 569.555 L 980.414 571.801 L 980.578 574.045 L 980.741 576.288 L 980.903 578.529 L 981.063 580.769 L 981.223 583.008 L 981.381 585.244 L 981.538 587.480 L 981.694 589.713 L 981.849 591.945 L 982.003 594.175 L 982.155 596.403 L 982.307 598.629 L 982.457 600.854 L 982.606 603.076 L 982.754 605.297 L 982.901 607.515 L 983.046 609.731 L 983.191 611.945 L 983.334 614.157 L 983.476 616.366 L 983.617 618.574 L 983.757 620.779 L 983.895 622.981 L 984.033 625.181 L 984.169 627.378 L 984.304 629.573 L 984.438 631.766 L 984.571 633.955 L 984.702 636.142 L 984.833 638.326 L 984.962 640.508 L 985.090 642.686 L 985.217 644.862 L 985.343 647.034 L 985.467 649.204 L 985.591 651.370 L 985.713 653.534 L 985.834 655.694 L 985.954 657.851 L 986.073 660.005 L 986.190 662.156 L 986.307 664.303 L 986.422 666.447 L 986.536 668.588 L 986.649 670.725 L 986.761 672.858 L 986.871 674.988 L 986.980 677.114 L 987.089 679.237 L 987.196 681.356 L 987.302 683.471 L 987.406 685.582 L 987.510 687.690 L 987.612 689.793 L 987.713 691.893 L 987.813 693.988 L 987.912 696.080 L 988.010 698.167 L 988.106 700.251 L 988.201 702.330 L 988.295 704.405 L 988.388 706.475 L 988.480 708.542 L 988.571 710.604 L 988.660 712.661 L 988.748 714.714 L 988.835 716.763 L 988.921 718.807 L 989.006 720.846 L 989.089 722.881 L 989.172 724.911 L 989.253 726.937 L 989.333 728.957 L 989.412 730.973 L 989.489 732.984 L 989.566 734.990 L 989.641 736.991 L 989.715 738.987 L 989.788 740.978 L 989.860 742.964 L 989.930 744.945 L 990.000 746.921 L 990.068 748.891 L 990.135 750.856 L 990.201 752.816 L 990.265 754.770 L 990.329 756.720 L 990.391 758.663 L 990.452 760.601 L 990.512 762.534 L 990.571 764.461 L 990.628 766.383 L 990.685 768.298 L 990.740 770.209 L 990.794 772.113 L 990.847 774.012 L 990.899 775.904 L 990.949 777.791 L 990.998 779.672 L 991.046 781.547 L 991.093 783.416 L 991.139 785.279 L 991.184 787.136 L 991.227 788.987 L 991.269 790.832 L 991.310 792.671 L 991.350 794.503 L 991.389 796.329 L 991.426 798.149 L 991.462 799.962 L 991.498 801.769 L 991.531 803.569 L 991.564 805.363 L 991.596 807.151 L 991.626 808.932 L 991.655 810.706 L 991.683 812.474 L 991.710 814.235 L 991.736 815.989 L 991.760 817.737 L 991.783 819.478 L 991.805 821.212 L 991.826 822.939 L 991.846 824.659 L 991.864 826.372 L 991.882 828.078 L 991.898 829.777 L 991.913 831.470 L 991.927 833.155 L 991.939 834.833 L 991.951 836.503 L 991.961 838.167 L 991.970 839.823 L 991.978 841.472 L 991.984 843.114 L 991.990 844.748 L 991.994 846.375 L 991.997 847.995 L 991.999 849.607 L 992.000 851.211 L 992.000 852.808 L 991.998 854.398 L 991.995 855.979 L 991.991 857.554 L 991.986 859.120 L 991.980 860.679 L 991.972 862.230 L 991.963 863.773 L 991.953 865.309 L 991.942 866.836 L 991.930 868.356 L 991.916 869.868 L 991.902 871.372 L 991.886 872.868 L 991.869 874.355 L 991.851 875.835 L 991.831 877.307 L 991.811 878.771 L 991.789 880.226 L 991.766 881.673 L 991.742 883.112 L 991.717 884.543 L 991.690 885.966 L 991.662 887.380 L 991.633 888.786 L 991.603 890.183 L 991.572 891.572 L 991.540 892.953 L 991.506 894.325 L 991.471 895.689 L 991.435 897.044 L 991.398 898.391 L 991.360 899.729 L 991.320 901.058 L 991.280 902.379 L 991.238 903.691 L 991.195 904.995 L 991.150 906.289 L 991.105 907.575 L 991.058 908.852 L 991.010 910.121 L 990.961 911.380 L 990.911 912.631 L 990.860 913.872 L 990.807 915.105 L 990.754 916.329 L 990.699 917.544 L 990.643 918.750 L 990.585 919.947 L 990.527 921.134 L 990.467 922.313 L 990.407 923.482 L 990.345 924.643 L 990.281 925.794 L 990.217 926.936 L 990.151 928.069 L 990.085 929.192 L 990.017 930.307 L 989.948 931.412 L 989.878 932.507 L 989.806 933.594 L 989.733 934.671 L 989.660 935.738 L 989.585 936.796 L 989.509 937.845 L 989.431 938.884 L 989.353 939.914 L 989.273 940.934 L 989.192 941.945 L 989.110 942.946 L 989.027 943.938 L 988.943 944.920 L 988.857 945.892 L 988.770 946.855 L 988.682 947.808 L 988.593 948.751 L 988.503 949.685 L 988.411 950.609 L 988.319 951.523 L 988.225 952.428 L 988.130 953.323 L 988.034 954.207 L 987.936 955.082 L 987.838 955.948 L 987.738 956.803 L 987.637 957.648 L 987.535 958.484 L 987.432 959.310 L 987.328 960.125 L 987.222 960.931 L 987.116 961.727 L 987.008 962.513 L 986.899 963.288 L 986.788 964.054 L 986.677 964.810 L 986.564 965.556 L 986.451 966.291 L 986.336 967.017 L 986.219 967.732 L 986.102 968.437 L 985.984 969.132 L 985.864 969.817 L 985.743 970.492 L 985.621 971.157 L 985.498 971.811 L 985.374 972.455 L 985.249 973.089 L 985.122 973.713 L 984.994 974.326 L 984.865 974.929 L 984.735 975.522 L 984.604 976.105 L 984.471 976.677 L 984.338 977.239 L 984.203 977.791 L 984.067 978.332 L 983.930 978.863 L 983.791 979.383 L 983.652 979.893 L 983.511 980.393 L 983.370 980.882 L 983.227 981.361 L 983.082 981.830 L 982.937 982.288 L 982.791 982.736 L 982.643 983.173 L 982.494 983.599 L 982.344 984.016 L 982.193 984.421 L 982.041 984.816 L 981.888 985.201 L 981.733 985.575 L 981.577 985.939 L 981.420 986.292 L 981.262 986.635 L 981.103 986.967 L 980.943 987.288 L 980.781 987.599 L 980.619 987.900 L 980.455 988.189 L 980.290 988.469 L 980.124 988.737 L 979.956 988.995 L 979.788 989.243 L 979.618 989.480 L 979.448 989.706 L 979.276 989.922 L 979.103 990.127 L 978.928 990.321 L 978.753 990.505 L 978.576 990.678 L 978.399 990.840 L 978.220 990.992 L 978.040 991.133 L 977.859 991.264 L 977.676 991.384 L 977.493 991.493 L 977.308 991.592 L 977.123 991.680 L 976.936 991.757 L 976.748 991.824 L 976.559 991.880 L 976.368 991.925 L 976.177 991.960 L 975.984 991.984 L 975.790 991.997 L 975.596 992.000 L 975.400 991.992 L 975.202 991.973 L 975.004 991.944 L 974.804 991.904 L 974.604 991.853 L 974.402 991.792 L 974.199 991.720 L 973.995 991.637 L 973.790 991.544 L 973.584 991.440 L 973.376 991.325 L 973.168 991.200 L 972.958 991.064 L 972.747 990.918 L 972.535 990.760 L 972.322 990.593 L 972.107 990.414 L 971.892 990.225 L 971.675 990.025 L 971.458 989.815 L 971.239 989.594 L 971.019 989.363 L 970.798 989.120 L 970.576 988.868 L 970.352 988.604 L 970.128 988.330 L 969.902 988.046 L 969.675 987.751 L 969.447 987.445 L 969.218 987.129 L 968.988 986.802 L 968.757 986.465 L 968.525 986.117 L 968.291 985.759 L 968.056 985.390 L 967.821 985.010 L 967.584 984.620 L 967.346 984.220 L 967.107 983.809 L 966.866 983.387 L 966.625 982.955 L 966.382 982.513 L 966.139 982.060 L 965.894 981.597 L 965.648 981.123 L 965.401 980.639 L 965.153 980.145 L 964.904 979.640 L 964.653 979.124 L 964.402 978.599 L 964.149 978.062 L 963.895 977.516 L 963.641 976.959 L 963.385 976.392 L 963.128 975.815 L 962.869 975.227 L 962.610 974.629 L 962.350 974.021 L 962.088 973.402 L 961.826 972.773 L 961.562 972.134 L 961.297 971.485 L 961.031 970.826 L 960.764 970.156 L 960.496 969.476 L 960.227 968.786 L 959.956 968.086 L 959.685 967.376 L 959.412 966.655 L 959.138 965.925 L 958.864 965.184 L 958.588 964.433 L 958.311 963.673 L 958.033 962.902 L 957.753 962.121 L 957.473 961.330 L 957.192 960.529 L 956.909 959.719 L 956.626 958.898 L 956.341 958.067 L 956.055 957.227 L 955.768 956.377 L 955.480 955.516 L 955.191 954.646 L 954.901 953.766 L 954.610 952.876 L 954.317 951.977 L 954.024 951.067 L 953.729 950.148 L 953.434 949.219 L 953.137 948.281 L 952.839 947.333 L 952.540 946.375 L 952.240 945.407 L 951.939 944.430 L 951.637 943.443 L 951.334 942.447 L 951.029 941.441 L 950.724 940.425 L 950.417 939.400 L 950.110 938.366 L 949.801 937.322 L 949.491 936.268 L 949.181 935.205 L 948.869 934.133 L 948.556 933.052 L 948.242 931.961 L 947.926 930.860 L 947.610 929.751 L 947.293 928.632 L 946.975 927.504 L 946.655 926.366 L 946.335 925.220 L 946.013 924.064 L 945.690 922.899 L 945.367 921.725 L 945.042 920.542 L 944.716 919.349 L 944.389 918.148 L 944.061 916.938 L 943.732 915.718 L 943.402 914.490 L 943.071 913.253 L 942.738 912.007 L 942.405 910.752 L 942.071 909.488 L 941.735 908.215 L 941.399 906.933 L 941.061 905.643 L 940.722 904.344 L 940.383 903.036 L 940.042 901.720 L 939.700 900.395 L 939.357 899.061 L 939.013 897.719 L 938.669 896.368 L 938.322 895.008 L 937.975 893.640 L 937.627 892.264 L 937.278 890.879 L 936.928 889.486 L 936.577 888.084 L 936.224 886.674 L 935.871 885.255 L 935.516 883.829 L 935.161 882.394 L 934.804 880.951 L 934.447 879.499 L 934.088 878.040 L 933.729 876.572 L 933.368 875.096 L 933.006 873.612 L 932.644 872.121 L 932.280 870.621 L 931.915 869.113 L 931.549 867.597 L 931.182 866.074 L 930.814 864.542 L 930.445 863.003 L 930.075 861.455 L 929.704 859.901 L 929.332 858.338 L 928.959 856.768 L 928.585 855.190 L 928.210 853.604 L 927.834 852.011 L 927.456 850.410 L 927.078 848.802 L 926.699 847.186 L 926.319 845.563 L 925.937 843.932 L 925.555 842.294 L 925.172 840.649 L 924.787 838.996 L 924.402 837.336 L 924.015 835.669 L 923.628 833.995 L 923.239 832.313 L 922.850 830.624 L 922.460 828.929 L 922.068 827.226 L 921.676 825.516 L 921.282 823.800 L 920.888 822.076 L 920.492 820.345 L 920.095 818.608 L 919.698 816.864 L 919.299 815.113 L 918.900 813.355 L 918.499 811.591 L 918.098 809.820 L 917.695 808.042 L 917.292 806.258 L 916.887 804.467 L 916.481 802.670 L 916.075 800.866 L 915.667 799.056 L 915.259 797.240 L 914.849 795.417 L 914.439 793.588 L 914.027 791.752 L 913.615 789.910 L 913.201 788.063 L 912.786 786.209 L 912.371 784.349 L 911.954 782.483 L 911.537 780.611 L 911.119 778.732 L 910.699 776.849 L 910.279 774.959 L 909.857 773.063 L 909.435 771.161 L 909.011 769.254 L 908.587 767.341 L 908.162 765.423 L 907.735 763.498 L 907.308 761.568 L 906.880 759.633 L 906.451 757.692 L 906.020 755.746 L 905.589 753.794 L 905.157 751.837 L 904.724 749.874 L 904.290 747.906 L 903.855 745.933 L 903.419 743.955 L 902.982 741.972 L 902.544 739.983 L 902.105 737.990 L 901.665 735.991 L 901.224 733.988 L 900.782 731.979 L 900.339 729.966 L 899.895 727.948 L 899.451 725.925 L 899.005 723.897 L 898.559 721.864 L 898.111 719.827 L 897.662 717.786 L 897.213 715.739 L 896.763 713.688 L 896.311 711.633 L 895.859 709.573 L 895.406 707.509 L 894.951 705.441 L 894.496 703.368 L 894.040 701.291 L 893.583 699.210 L 893.125 697.124 L 892.666 695.035 L 892.206 692.941 L 891.745 690.843 L 891.284 688.742 L 890.821 686.636 L 890.357 684.527 L 889.893 682.414 L 889.427 680.297 L 888.961 678.176 L 888.494 676.052 L 888.025 673.923 L 887.556 671.792 L 887.086 669.657 L 886.615 667.518 L 886.143 665.376 L 885.670 663.230 L 885.196 661.081 L 884.721 658.929 L 884.246 656.773 L 883.769 654.615 L 883.292 652.453 L 882.813 650.288 L 882.334 648.119 L 881.854 645.948 L 881.372 643.774 L 880.890 641.597 L 880.407 639.417 L 879.923 637.235 L 879.439 635.049 L 878.953 632.861 L 878.466 630.670 L 877.979 628.476 L 877.490 626.280 L 877.001 624.081 L 876.511 621.880 L 876.020 619.676 L 875.528 617.470 L 875.035 615.262 L 874.541 613.051 L 874.046 610.838 L 873.550 608.623 L 873.054 606.406 L 872.557 604.187 L 872.058 601.965 L 871.559 599.742 L 871.059 597.516 L 870.558 595.289 L 870.056 593.060 L 869.554 590.829 L 869.050 588.597 L 868.545 586.362 L 868.040 584.126 L 867.534 581.889 L 867.027 579.649 L 866.519 577.409 L 866.010 575.167 L 865.500 572.923 L 864.989 570.678 L 864.478 568.432 L 863.966 566.185 L 863.452 563.936 L 862.938 561.686 L 862.423 559.435 L 861.908 557.183 L 861.391 554.930 L 860.873 552.676 L 860.355 550.422 L 859.836 548.166 L 859.315 545.909 L 858.794 543.652 L 858.273 541.394 L 857.750 539.136 L 857.226 536.876 L 856.702 534.617 L 856.177 532.357 L 855.651 530.096 L 855.124 527.835 L 854.596 525.573 L 854.067 523.312 L 853.538 521.050 L 853.007 518.787 L 852.476 516.525 L 851.944 514.263 L 851.411 512.000" stroke="#00f889" stroke-width="80" stroke-linecap="round" stroke-linejoin="round" fill="none" />
  </g>
</svg></svg>